<svg width="32" height="32" viewBox="0 0 32 32" fill="none" xmlns="http://www.w3.org/2000/svg">
<path fill-rule="evenodd" clip-rule="evenodd" d="M3.42094 14.519C4.23886 14.3875 5.00854 14.9439 5.14007 15.7618C5.98228 20.9991 10.5253 25 16 25C21.4746 25 26.0176 20.9991 26.8598 15.7618C26.9914 14.9439 27.7611 14.3875 28.579 14.519C29.3969 14.6505 29.9533 15.4202 29.8218 16.2381C28.7494 22.9066 22.9709 28 16 28C9.02898 28 3.25048 22.9066 2.17812 16.2381C2.0466 15.4202 2.60302 14.6505 3.42094 14.519Z" fill="white"/>
<path fill-rule="evenodd" clip-rule="evenodd" d="M23.9994 13.8996C22.7289 15.1958 20.9584 16 19 16C15.134 16 12 12.866 12 9.00001C12 8.26594 12.113 7.55827 12.3225 6.89343C9.75458 8.22499 8 10.9076 8 14C8 18.4182 11.5817 22 16 22C20.4183 22 24 18.4182 24 14C24 13.9665 23.9998 13.933 23.9994 13.8996Z" fill="white"/>
</svg>
