<svg width="116" height="40" viewBox="0 0 116 40" fill="none" xmlns="http://www.w3.org/2000/svg">
<path fill-rule="evenodd" clip-rule="evenodd" d="M3.42094 18.519C4.23886 18.3875 5.00854 18.9439 5.14007 19.7619C5.98228 24.9991 10.5253 29 16 29C21.4746 29 26.0176 24.9991 26.8598 19.7619C26.9914 18.9439 27.7611 18.3875 28.579 18.519C29.3969 18.6506 29.9533 19.4202 29.8218 20.2382C28.7494 26.9066 22.9709 32 16 32C9.02898 32 3.25048 26.9066 2.17812 20.2382C2.0466 19.4202 2.60302 18.6506 3.42094 18.519Z" fill="white"/>
<path fill-rule="evenodd" clip-rule="evenodd" d="M23.9994 17.8996C22.7289 19.1958 20.9584 20 19 20C15.134 20 12 16.866 12 13C12 12.2659 12.113 11.5583 12.3225 10.8934C9.75458 12.225 8 14.9076 8 18C8 22.4182 11.5817 26 16 26C20.4183 26 24 22.4182 24 18C24 17.9665 23.9998 17.933 23.9994 17.8996Z" fill="white"/>
<path d="M45.2771 2.02571C45.2143 2.00857 45.14 2 45.0543 2L40.9543 2.00003C40.8743 2.00003 40.7971 2.0086 40.7229 2.02574C40.6543 2.04288 40.6 2.08574 40.56 2.15431C40.52 2.21717 40.5 2.35714 40.5 2.5C40.5 2.64286 40.52 2.79145 40.56 2.85431C40.6057 2.91717 40.6629 2.95717 40.7314 2.97431C40.8 2.99145 40.8743 3.00003 40.9543 3.00003H42.5V7.47714C42.5 7.57429 42.5086 7.66286 42.5257 7.74286C42.5429 7.81714 42.5886 7.87714 42.6629 7.92286C42.7371 7.97429 42.8457 8 43 8C43.1657 8 43.26 7.96857 43.3286 7.92286C43.4029 7.87714 43.4486 7.81714 43.4657 7.74286C43.4886 7.66286 43.5 7.57429 43.5 7.47714V3.00003L45.0457 3C45.1314 3 45.2086 2.99429 45.2771 2.98286C45.3457 2.96571 45.4 2.92571 45.44 2.86286C45.48 2.79429 45.5 2.64286 45.5 2.5C45.5 2.35714 45.48 2.21714 45.44 2.15429C45.4 2.08571 45.3457 2.04286 45.2771 2.02571Z" fill="white"/>
<path d="M50.6629 7.92288C50.7371 7.9686 50.84 8 51 8C51.16 8 51.2543 7.9686 51.3286 7.92288C51.4029 7.87717 51.4486 7.81431 51.4657 7.73431C51.4886 7.65431 51.5 7.5686 51.5 7.47717V2.52676C51.5 2.42962 51.4886 2.34105 51.4657 2.26105C51.4486 2.18105 51.4029 2.11819 51.3286 2.07248C51.26 2.02676 51.16 2 51 2C50.8343 2 50.7371 2.03533 50.6629 2.08105C50.5943 2.12676 50.5486 2.18962 50.5257 2.26962C50.5086 2.34962 50.5 2.43533 50.5 2.52676V4.49822L47.5 4.48752V3.53C47.5 3.43286 47.4914 2.34496 47.4743 2.26496C47.4571 2.18496 47.4114 2.1221 47.3371 2.07638C47.2686 2.03067 47.1286 2 47 2C46.84 2 46.7457 2.03067 46.6714 2.07638C46.5971 2.1221 46.5486 2.18496 46.5257 2.26496C46.5086 2.34496 46.5 2.43067 46.5 2.5221V7.47714C46.5 7.56857 46.5086 7.65714 46.5257 7.74286C46.5486 7.82286 46.5943 7.88571 46.6629 7.93143C46.7371 7.97714 46.84 8 47 8C47.1657 8 47.26 7.97714 47.3286 7.93143C47.4029 7.88571 47.4486 7.82286 47.4657 7.74286C47.4886 7.66286 47.5 7.57714 47.5 7.48571V5.5H50.5V7.4686C50.5 7.56003 50.5086 7.6486 50.5257 7.73431C50.5429 7.81431 50.5886 7.87717 50.6629 7.92288Z" fill="white"/>
<path d="M52.9129 7.92288C52.9871 7.97431 53.1043 8.00003 53.2643 8.00003H56.6243C56.7214 8.00003 56.8071 7.9886 56.8814 7.96574C56.9614 7.9486 57.0243 7.90288 57.07 7.8286C57.1214 7.75431 57.1471 7.66 57.1471 7.5C57.1471 7.34 57.1243 7.24571 57.0786 7.17143C57.0329 7.09714 56.97 7.05143 56.89 7.03429C56.8157 7.01143 56.73 7 56.6329 7H53.75V5.5H55.7243C55.8214 5.5 55.9071 5.49429 55.9814 5.48286C56.0557 5.46571 56.1129 5.42571 56.1529 5.36286C56.1929 5.29429 56.2129 5.14286 56.2129 5C56.2129 4.85143 56.1757 4.72105 56.1357 4.65819C56.0957 4.59533 56.0414 4.55533 55.9729 4.53819C55.9043 4.51533 55.8214 4.50391 55.7243 4.50391H53.75V3H56.6243C56.7214 3 56.8071 2.99143 56.8814 2.97429C56.9614 2.95714 57.0243 2.91143 57.07 2.83714C57.1214 2.76286 57.1471 2.66 57.1471 2.5C57.1471 2.33429 57.1243 2.2486 57.0786 2.18003C57.0329 2.10574 56.97 2.06003 56.89 2.04288C56.8157 2.02003 56.73 2 56.6329 2H53.29C53.0843 2 52.9414 2.04574 52.8614 2.12003C52.7871 2.19431 52.75 2.3286 52.75 2.52288V7.4686C52.75 7.56574 52.7586 7.65431 52.7757 7.73431C52.7929 7.81431 52.8386 7.87717 52.9129 7.92288Z" fill="white"/>
<path d="M44.065 20.62C43.615 20.62 43.205 20.565 42.835 20.455C42.475 20.345 42.155 20.205 41.875 20.035C41.605 19.865 41.375 19.69 41.185 19.51C40.995 19.33 40.855 19.165 40.765 19.015C40.635 18.835 40.55 18.675 40.51 18.535C40.47 18.395 40.48 18.26 40.54 18.13C40.61 17.99 40.735 17.845 40.915 17.695C41.095 17.535 41.26 17.455 41.41 17.455C41.57 17.445 41.72 17.49 41.86 17.59C42.01 17.69 42.155 17.83 42.295 18.01C42.535 18.33 42.805 18.56 43.105 18.7C43.405 18.83 43.705 18.895 44.005 18.895C44.395 18.895 44.735 18.845 45.025 18.745C45.315 18.635 45.54 18.475 45.7 18.265C45.87 18.055 45.955 17.785 45.955 17.455C45.955 17.185 45.87 16.965 45.7 16.795C45.54 16.615 45.325 16.465 45.055 16.345C44.785 16.215 44.48 16.1 44.14 16C43.81 15.89 43.475 15.77 43.135 15.64C42.895 15.56 42.655 15.465 42.415 15.355C42.175 15.235 41.95 15.1 41.74 14.95C41.54 14.8 41.36 14.625 41.2 14.425C41.05 14.215 40.93 13.975 40.84 13.705C40.75 13.435 40.705 13.12 40.705 12.76C40.705 12.19 40.845 11.69 41.125 11.26C41.405 10.82 41.795 10.475 42.295 10.225C42.795 9.965 43.365 9.835 44.005 9.835C44.415 9.835 44.78 9.875 45.1 9.955C45.43 10.025 45.71 10.12 45.94 10.24C46.18 10.35 46.375 10.465 46.525 10.585C46.685 10.695 46.8 10.79 46.87 10.87C47.1 11.1 47.225 11.295 47.245 11.455C47.275 11.605 47.185 11.81 46.975 12.07C46.765 12.34 46.56 12.49 46.36 12.52C46.17 12.54 45.955 12.46 45.715 12.28C45.555 12.11 45.395 11.975 45.235 11.875C45.075 11.765 44.895 11.685 44.695 11.635C44.505 11.585 44.27 11.56 43.99 11.56C43.79 11.56 43.595 11.59 43.405 11.65C43.225 11.7 43.07 11.78 42.94 11.89C42.81 11.99 42.705 12.115 42.625 12.265C42.555 12.415 42.52 12.585 42.52 12.775C42.52 13.035 42.59 13.25 42.73 13.42C42.88 13.58 43.08 13.715 43.33 13.825C43.58 13.925 43.86 14.02 44.17 14.11C44.48 14.2 44.795 14.295 45.115 14.395C45.445 14.505 45.77 14.635 46.09 14.785C46.41 14.935 46.695 15.125 46.945 15.355C47.195 15.575 47.395 15.855 47.545 16.195C47.695 16.525 47.77 16.93 47.77 17.41C47.77 17.96 47.665 18.44 47.455 18.85C47.245 19.26 46.96 19.595 46.6 19.855C46.24 20.115 45.84 20.305 45.4 20.425C44.96 20.555 44.515 20.62 44.065 20.62Z" fill="white"/>
<path d="M50.0771 20.485C49.7871 20.485 49.5771 20.44 49.4471 20.35C49.3171 20.27 49.2321 20.16 49.1921 20.02C49.1621 19.88 49.1471 19.73 49.1471 19.57V10.915C49.1471 10.745 49.1621 10.59 49.1921 10.45C49.2321 10.31 49.3121 10.2 49.4321 10.12C49.5621 10.04 49.7721 10 50.0621 10C50.3421 10 50.5421 10.04 50.6621 10.12C50.7921 10.2 50.8721 10.31 50.9021 10.45C50.9421 10.59 50.9621 10.745 50.9621 10.915V18.865H55.5371C55.6871 18.865 55.8221 18.88 55.9421 18.91C56.0621 18.93 56.1571 19 56.2271 19.12C56.2971 19.23 56.3321 19.41 56.3321 19.66C56.3321 19.91 56.2971 20.095 56.2271 20.215C56.1571 20.325 56.0621 20.395 55.9421 20.425C55.8221 20.465 55.6871 20.485 55.5371 20.485H50.0771Z" fill="white"/>
<path d="M58.5299 20.485C58.2499 20.485 58.0449 20.44 57.9149 20.35C57.7849 20.27 57.7049 20.16 57.6749 20.02C57.6449 19.88 57.6299 19.725 57.6299 19.555V10.9C57.6299 10.56 57.6949 10.325 57.8249 10.195C57.9649 10.065 58.2149 10 58.5749 10H64.4249C64.5949 10 64.7449 10.02 64.8749 10.06C65.0149 10.09 65.1249 10.17 65.2049 10.3C65.2849 10.42 65.3249 10.625 65.3249 10.915C65.3249 11.195 65.2799 11.4 65.1899 11.53C65.1099 11.66 64.9999 11.74 64.8599 11.77C64.7299 11.8 64.5799 11.815 64.4099 11.815H59.4449V14.335H62.8649C63.0349 14.335 63.1799 14.355 63.2999 14.395C63.4199 14.425 63.5149 14.495 63.5849 14.605C63.6549 14.715 63.6899 14.9 63.6899 15.16C63.6899 15.41 63.6549 15.595 63.5849 15.715C63.5149 15.825 63.4149 15.895 63.2849 15.925C63.1549 15.945 63.0049 15.955 62.8349 15.955H59.4449V18.655H64.4249C64.5949 18.655 64.7449 18.675 64.8749 18.715C65.0149 18.745 65.1249 18.825 65.2049 18.955C65.2849 19.085 65.3249 19.29 65.3249 19.57C65.3249 19.85 65.2799 20.055 65.1899 20.185C65.1099 20.315 64.9999 20.395 64.8599 20.425C64.7299 20.465 64.5799 20.485 64.4099 20.485H58.5299Z" fill="white"/>
<path d="M67.7878 20.485C67.5078 20.485 67.3028 20.44 67.1728 20.35C67.0428 20.27 66.9628 20.16 66.9328 20.02C66.9028 19.88 66.8878 19.725 66.8878 19.555V10.9C66.8878 10.56 66.9528 10.325 67.0828 10.195C67.2228 10.065 67.4728 10 67.8328 10H73.6828C73.8528 10 74.0028 10.02 74.1328 10.06C74.2728 10.09 74.3828 10.17 74.4628 10.3C74.5428 10.42 74.5828 10.625 74.5828 10.915C74.5828 11.195 74.5378 11.4 74.4478 11.53C74.3678 11.66 74.2578 11.74 74.1178 11.77C73.9878 11.8 73.8378 11.815 73.6678 11.815H68.7028V14.335H72.1228C72.2928 14.335 72.4378 14.355 72.5578 14.395C72.6778 14.425 72.7728 14.495 72.8428 14.605C72.9128 14.715 72.9478 14.9 72.9478 15.16C72.9478 15.41 72.9128 15.595 72.8428 15.715C72.7728 15.825 72.6728 15.895 72.5428 15.925C72.4128 15.945 72.2628 15.955 72.0928 15.955H68.7028V18.655H73.6828C73.8528 18.655 74.0028 18.675 74.1328 18.715C74.2728 18.745 74.3828 18.825 74.4628 18.955C74.5428 19.085 74.5828 19.29 74.5828 19.57C74.5828 19.85 74.5378 20.055 74.4478 20.185C74.3678 20.315 74.2578 20.395 74.1178 20.425C73.9878 20.465 73.8378 20.485 73.6678 20.485H67.7878Z" fill="white"/>
<path d="M76.9556 20.47C76.6756 20.47 76.4706 20.43 76.3406 20.35C76.2106 20.27 76.1306 20.16 76.1006 20.02C76.0706 19.87 76.0556 19.715 76.0556 19.555V10.9C76.0556 10.74 76.0706 10.595 76.1006 10.465C76.1406 10.325 76.2256 10.215 76.3556 10.135C76.4856 10.045 76.6906 10 76.9706 10H80.1506C80.5906 10 81.0206 10.075 81.4406 10.225C81.8606 10.375 82.2356 10.6 82.5656 10.9C82.9056 11.2 83.1706 11.57 83.3606 12.01C83.5606 12.45 83.6606 12.965 83.6606 13.555C83.6606 14.135 83.5606 14.645 83.3606 15.085C83.1706 15.515 82.9056 15.88 82.5656 16.18C82.2256 16.48 81.8456 16.705 81.4256 16.855C81.0156 17.005 80.5856 17.08 80.1356 17.08H77.8706V19.57C77.8706 19.73 77.8506 19.88 77.8106 20.02C77.7806 20.16 77.7006 20.27 77.5706 20.35C77.4506 20.43 77.2456 20.47 76.9556 20.47ZM77.8706 15.25H80.1506C80.4606 15.25 80.7406 15.19 80.9906 15.07C81.2506 14.94 81.4606 14.75 81.6206 14.5C81.7806 14.24 81.8606 13.915 81.8606 13.525C81.8606 13.175 81.7856 12.875 81.6356 12.625C81.4956 12.365 81.2956 12.165 81.0356 12.025C80.7856 11.885 80.4856 11.815 80.1356 11.815H77.8706V15.25Z" fill="white"/>
<path d="M41.695 33.135C41.435 33.135 41.24 33.09 41.11 33C40.98 32.92 40.895 32.81 40.855 32.67C40.815 32.53 40.795 32.38 40.795 32.22V23.55C40.795 23.39 40.81 23.245 40.84 23.115C40.88 22.975 40.965 22.865 41.095 22.785C41.225 22.695 41.43 22.65 41.71 22.65L44.53 22.665C45.26 22.665 45.93 22.79 46.54 23.04C47.16 23.29 47.695 23.645 48.145 24.105C48.595 24.565 48.94 25.115 49.18 25.755C49.43 26.385 49.555 27.08 49.555 27.84C49.555 28.62 49.43 29.335 49.18 29.985C48.93 30.635 48.58 31.195 48.13 31.665C47.68 32.135 47.145 32.5 46.525 32.76C45.915 33.01 45.235 33.135 44.485 33.135H41.695ZM42.61 31.32H44.53C45.17 31.32 45.73 31.18 46.21 30.9C46.69 30.61 47.06 30.21 47.32 29.7C47.59 29.19 47.725 28.595 47.725 27.915C47.725 27.225 47.59 26.625 47.32 26.115C47.06 25.595 46.685 25.195 46.195 24.915C45.715 24.625 45.155 24.48 44.515 24.48H42.61V31.32Z" fill="white"/>
<path d="M55.7303 33.27C55.0103 33.27 54.3353 33.135 53.7053 32.865C53.0853 32.585 52.5353 32.205 52.0553 31.725C51.5753 31.235 51.2003 30.675 50.9303 30.045C50.6603 29.405 50.5253 28.72 50.5253 27.99C50.5253 27.24 50.6553 26.54 50.9153 25.89C51.1853 25.23 51.5503 24.655 52.0103 24.165C52.4803 23.665 53.0203 23.275 53.6303 22.995C54.2403 22.715 54.8953 22.575 55.5953 22.575C56.3253 22.575 57.0003 22.715 57.6203 22.995C58.2503 23.265 58.8003 23.645 59.2703 24.135C59.7403 24.625 60.1103 25.195 60.3803 25.845C60.6503 26.485 60.7853 27.18 60.7853 27.93C60.7853 28.66 60.6553 29.35 60.3953 30C60.1353 30.64 59.7703 31.21 59.3003 31.71C58.8303 32.2 58.2903 32.585 57.6803 32.865C57.0803 33.135 56.4303 33.27 55.7303 33.27ZM55.6553 31.44C56.1153 31.44 56.5453 31.35 56.9453 31.17C57.3453 30.99 57.6953 30.74 57.9953 30.42C58.3053 30.1 58.5453 29.73 58.7153 29.31C58.8853 28.88 58.9703 28.42 58.9703 27.93C58.9703 27.44 58.8803 26.985 58.7003 26.565C58.5303 26.135 58.2903 25.76 57.9803 25.44C57.6803 25.11 57.3303 24.855 56.9303 24.675C56.5403 24.495 56.1153 24.405 55.6553 24.405C55.2053 24.405 54.7803 24.495 54.3803 24.675C53.9803 24.855 53.6253 25.11 53.3153 25.44C53.0153 25.76 52.7803 26.135 52.6103 26.565C52.4403 26.995 52.3553 27.45 52.3553 27.93C52.3553 28.41 52.4403 28.865 52.6103 29.295C52.7903 29.725 53.0303 30.1 53.3303 30.42C53.6303 30.74 53.9753 30.99 54.3653 31.17C54.7653 31.35 55.1953 31.44 55.6553 31.44Z" fill="white"/>
<path d="M66.9884 33.21C66.4984 33.21 66.0034 33.14 65.5034 33C65.0034 32.85 64.5234 32.63 64.0634 32.34C63.6034 32.04 63.1934 31.675 62.8334 31.245C62.4834 30.805 62.2034 30.3 61.9934 29.73C61.7834 29.15 61.6784 28.51 61.6784 27.81C61.6784 27.12 61.7834 26.5 61.9934 25.95C62.2034 25.39 62.4834 24.9 62.8334 24.48C63.1934 24.06 63.5984 23.71 64.0484 23.43C64.5084 23.15 64.9884 22.94 65.4884 22.8C65.9984 22.65 66.5034 22.57 67.0034 22.56C67.5134 22.56 67.9534 22.615 68.3234 22.725C68.6934 22.835 68.9934 22.955 69.2234 23.085C69.4534 23.205 69.6084 23.29 69.6884 23.34C69.8484 23.44 69.9984 23.555 70.1384 23.685C70.2884 23.805 70.3684 23.955 70.3784 24.135C70.3884 24.255 70.3734 24.365 70.3334 24.465C70.2934 24.555 70.2384 24.65 70.1684 24.75C70.0484 24.92 69.9284 25.045 69.8084 25.125C69.6884 25.205 69.5684 25.245 69.4484 25.245C69.3384 25.245 69.2334 25.215 69.1334 25.155C69.0434 25.095 68.9284 25.02 68.7884 24.93C68.7284 24.89 68.6184 24.83 68.4584 24.75C68.3084 24.66 68.1034 24.58 67.8434 24.51C67.5934 24.44 67.2884 24.405 66.9284 24.405C66.4984 24.405 66.0784 24.48 65.6684 24.63C65.2584 24.78 64.8884 25.005 64.5584 25.305C64.2384 25.595 63.9834 25.96 63.7934 26.4C63.6034 26.83 63.5084 27.325 63.5084 27.885C63.5084 28.445 63.6034 28.945 63.7934 29.385C63.9834 29.815 64.2384 30.18 64.5584 30.48C64.8884 30.77 65.2584 30.99 65.6684 31.14C66.0784 31.29 66.4984 31.365 66.9284 31.365C67.2684 31.365 67.5584 31.335 67.7984 31.275C68.0484 31.205 68.2584 31.125 68.4284 31.035C68.6084 30.935 68.7434 30.86 68.8334 30.81C68.9434 30.74 69.0484 30.675 69.1484 30.615C69.2484 30.555 69.3534 30.525 69.4634 30.525C69.5834 30.525 69.6984 30.565 69.8084 30.645C69.9284 30.725 70.0434 30.855 70.1534 31.035C70.2234 31.145 70.2784 31.25 70.3184 31.35C70.3584 31.45 70.3734 31.555 70.3634 31.665C70.3534 31.845 70.2734 32 70.1234 32.13C69.9834 32.25 69.8334 32.355 69.6734 32.445C69.5934 32.495 69.4384 32.585 69.2084 32.715C68.9884 32.835 68.6934 32.945 68.3234 33.045C67.9534 33.155 67.5084 33.21 66.9884 33.21Z" fill="white"/>
<path d="M79.5475 22.65C79.6975 22.65 79.8275 22.665 79.9375 22.695C80.0575 22.725 80.1525 22.8 80.2225 22.92C80.2925 23.03 80.3275 23.21 80.3275 23.46C80.3275 23.71 80.2925 23.895 80.2225 24.015C80.1525 24.125 80.0575 24.195 79.9375 24.225C79.8175 24.245 79.6825 24.255 79.5325 24.255H76.7725V32.25C76.7725 32.42 76.7525 32.575 76.7125 32.715C76.6825 32.845 76.6025 32.95 76.4725 33.03C76.3525 33.11 76.1475 33.15 75.8575 33.15C75.5875 33.15 75.3875 33.105 75.2575 33.015C75.1275 32.935 75.0475 32.83 75.0175 32.7C74.9875 32.56 74.9725 32.405 74.9725 32.235V24.255H72.1825C72.0425 24.255 71.9125 24.24 71.7925 24.21C71.6725 24.18 71.5725 24.11 71.4925 24C71.4225 23.89 71.3875 23.71 71.3875 23.46C71.3875 23.21 71.4225 23.03 71.4925 22.92C71.5625 22.8 71.6575 22.725 71.7775 22.695C71.9075 22.665 72.0425 22.65 72.1825 22.65H79.5475Z" fill="white"/>
<path d="M85.4227 33.27C84.7027 33.27 84.0277 33.135 83.3977 32.865C82.7777 32.585 82.2277 32.205 81.7477 31.725C81.2677 31.235 80.8927 30.675 80.6227 30.045C80.3527 29.405 80.2177 28.72 80.2177 27.99C80.2177 27.24 80.3477 26.54 80.6077 25.89C80.8777 25.23 81.2427 24.655 81.7027 24.165C82.1727 23.665 82.7127 23.275 83.3227 22.995C83.9327 22.715 84.5877 22.575 85.2877 22.575C86.0177 22.575 86.6927 22.715 87.3127 22.995C87.9427 23.265 88.4927 23.645 88.9627 24.135C89.4327 24.625 89.8027 25.195 90.0727 25.845C90.3427 26.485 90.4777 27.18 90.4777 27.93C90.4777 28.66 90.3477 29.35 90.0877 30C89.8277 30.64 89.4627 31.21 88.9927 31.71C88.5227 32.2 87.9827 32.585 87.3727 32.865C86.7727 33.135 86.1227 33.27 85.4227 33.27ZM85.3477 31.44C85.8077 31.44 86.2377 31.35 86.6377 31.17C87.0377 30.99 87.3877 30.74 87.6877 30.42C87.9977 30.1 88.2377 29.73 88.4077 29.31C88.5777 28.88 88.6627 28.42 88.6627 27.93C88.6627 27.44 88.5727 26.985 88.3927 26.565C88.2227 26.135 87.9827 25.76 87.6727 25.44C87.3727 25.11 87.0227 24.855 86.6227 24.675C86.2327 24.495 85.8077 24.405 85.3477 24.405C84.8977 24.405 84.4727 24.495 84.0727 24.675C83.6727 24.855 83.3177 25.11 83.0077 25.44C82.7077 25.76 82.4727 26.135 82.3027 26.565C82.1327 26.995 82.0477 27.45 82.0477 27.93C82.0477 28.41 82.1327 28.865 82.3027 29.295C82.4827 29.725 82.7227 30.1 83.0227 30.42C83.3227 30.74 83.6677 30.99 84.0577 31.17C84.4577 31.35 84.8877 31.44 85.3477 31.44Z" fill="white"/>
<path d="M92.6308 33.135C92.3508 33.135 92.1458 33.095 92.0158 33.015C91.8958 32.935 91.8158 32.825 91.7758 32.685C91.7458 32.535 91.7308 32.38 91.7308 32.22V23.565C91.7308 23.405 91.7508 23.26 91.7908 23.13C91.8308 22.99 91.9108 22.88 92.0308 22.8C92.1608 22.71 92.3658 22.665 92.6458 22.665H95.8558C96.3158 22.665 96.7508 22.74 97.1608 22.89C97.5808 23.03 97.9558 23.25 98.2858 23.55C98.6158 23.84 98.8758 24.21 99.0658 24.66C99.2658 25.1 99.3658 25.615 99.3658 26.205C99.3658 26.595 99.3058 26.985 99.1858 27.375C99.0658 27.755 98.8858 28.11 98.6458 28.44C98.4158 28.76 98.1208 29.035 97.7608 29.265C97.4008 29.495 96.9758 29.645 96.4858 29.715H93.5458V32.235C93.5458 32.395 93.5258 32.545 93.4858 32.685C93.4558 32.825 93.3758 32.935 93.2458 33.015C93.1258 33.095 92.9208 33.135 92.6308 33.135ZM99.0208 32.91C98.7308 33.11 98.4908 33.185 98.3008 33.135C98.1208 33.085 97.9408 32.925 97.7608 32.655L95.2408 28.845L97.2658 28.575L99.2608 31.605C99.4008 31.805 99.4858 31.975 99.5158 32.115C99.5458 32.255 99.5208 32.385 99.4408 32.505C99.3608 32.625 99.2208 32.76 99.0208 32.91ZM93.5458 27.915H96.0808C96.2608 27.915 96.4358 27.885 96.6058 27.825C96.7858 27.755 96.9458 27.65 97.0858 27.51C97.2258 27.36 97.3358 27.18 97.4158 26.97C97.5058 26.75 97.5508 26.49 97.5508 26.19C97.5508 25.83 97.4808 25.525 97.3408 25.275C97.2008 25.015 97.0008 24.82 96.7408 24.69C96.4908 24.55 96.1858 24.48 95.8258 24.48H93.5458V27.915Z" fill="white"/>
</svg>
