<?xml version="1.0" encoding="UTF-8"?>
<svg xmlns="http://www.w3.org/2000/svg" width="200" height="79" viewBox="0 0 200 79" fill="none">
  <path fill-rule="evenodd" clip-rule="evenodd" d="M6.70773 36.3119C8.31149 36.054 9.82067 37.145 10.0786 38.7488C11.73 49.0179 20.6379 56.8628 31.3725 56.8628C42.1071 56.8628 51.015 49.0179 52.6664 38.7488C52.9243 37.145 54.4334 36.054 56.0372 36.3119C57.641 36.5698 58.732 38.0789 58.4741 39.6827C56.3715 52.758 45.0411 62.7451 31.3725 62.7451C17.7039 62.7451 6.37348 52.758 4.27083 39.6827C4.01293 38.0789 5.10397 36.5698 6.70773 36.3119Z" fill="#324168"></path>
  <path fill-rule="evenodd" clip-rule="evenodd" d="M47.0576 35.0973C44.5665 37.6388 41.0948 39.2157 37.2549 39.2157C29.6745 39.2157 23.5294 33.0706 23.5294 25.4902C23.5294 24.0509 23.751 22.6633 24.1618 21.3597C19.1266 23.9706 15.6863 29.2305 15.6863 35.2941C15.6863 43.9573 22.7093 50.9803 31.3725 50.9803C40.0358 50.9803 47.0588 43.9573 47.0588 35.2941C47.0588 35.2284 47.0584 35.1628 47.0576 35.0973Z" fill="#B0B7F1"></path>
  <path d="M86.402 40.4314C85.5197 40.4314 84.7157 40.3235 83.9902 40.1079C83.2844 39.8922 82.6569 39.6177 82.1079 39.2843C81.5785 38.951 81.1275 38.6079 80.7549 38.2549C80.3824 37.902 80.1079 37.5784 79.9314 37.2843C79.6765 36.9314 79.5099 36.6177 79.4314 36.3431C79.353 36.0686 79.3726 35.8039 79.4902 35.549C79.6275 35.2745 79.8726 34.9902 80.2255 34.6961C80.5785 34.3824 80.902 34.2255 81.1961 34.2255C81.5099 34.2059 81.804 34.2941 82.0785 34.4902C82.3726 34.6863 82.6569 34.9608 82.9314 35.3137C83.402 35.9412 83.9314 36.3922 84.5197 36.6667C85.1079 36.9216 85.6961 37.049 86.2844 37.049C87.0491 37.049 87.7157 36.951 88.2844 36.7549C88.853 36.5392 89.2942 36.2255 89.6079 35.8137C89.9412 35.402 90.1079 34.8726 90.1079 34.2255C90.1079 33.6961 89.9412 33.2647 89.6079 32.9314C89.2942 32.5784 88.8726 32.2843 88.3432 32.049C87.8138 31.7941 87.2157 31.5686 86.5491 31.3726C85.902 31.1569 85.2451 30.9216 84.5785 30.6667C84.1079 30.5098 83.6373 30.3235 83.1667 30.1079C82.6961 29.8726 82.2549 29.6079 81.8432 29.3137C81.451 29.0196 81.0981 28.6765 80.7844 28.2843C80.4902 27.8726 80.2549 27.402 80.0785 26.8726C79.902 26.3431 79.8138 25.7255 79.8138 25.0196C79.8138 23.902 80.0883 22.9216 80.6373 22.0784C81.1863 21.2157 81.951 20.5392 82.9314 20.049C83.9118 19.5392 85.0295 19.2843 86.2844 19.2843C87.0883 19.2843 87.804 19.3628 88.4314 19.5196C89.0785 19.6569 89.6275 19.8431 90.0785 20.0784C90.5491 20.2941 90.9314 20.5196 91.2255 20.7549C91.5393 20.9706 91.7648 21.1569 91.902 21.3137C92.353 21.7647 92.5981 22.1471 92.6373 22.4608C92.6961 22.7549 92.5197 23.1569 92.1079 23.6667C91.6961 24.1961 91.2942 24.4902 90.902 24.549C90.5295 24.5882 90.1079 24.4314 89.6373 24.0784C89.3236 23.7451 89.0099 23.4804 88.6961 23.2843C88.3824 23.0686 88.0295 22.9118 87.6373 22.8137C87.2648 22.7157 86.804 22.6667 86.2549 22.6667C85.8628 22.6667 85.4804 22.7255 85.1079 22.8431C84.755 22.9412 84.451 23.098 84.1961 23.3137C83.9412 23.5098 83.7353 23.7549 83.5785 24.049C83.4412 24.3431 83.3726 24.6765 83.3726 25.049C83.3726 25.5588 83.5099 25.9804 83.7844 26.3137C84.0785 26.6275 84.4706 26.8922 84.9608 27.1078C85.451 27.3039 86 27.4902 86.6079 27.6667C87.2157 27.8431 87.8334 28.0294 88.4608 28.2255C89.1079 28.4412 89.7451 28.6961 90.3726 28.9902C91 29.2843 91.5589 29.6569 92.0491 30.1079C92.5393 30.5392 92.9314 31.0882 93.2255 31.7549C93.5197 32.402 93.6667 33.1961 93.6667 34.1373C93.6667 35.2157 93.4608 36.1569 93.0491 36.9608C92.6373 37.7647 92.0785 38.4216 91.3726 38.9314C90.6667 39.4412 89.8824 39.8137 89.0197 40.049C88.1569 40.3039 87.2844 40.4314 86.402 40.4314Z" fill="#324168"></path>
  <path d="M98.1904 40.1667C97.6218 40.1667 97.21 40.0784 96.9551 39.902C96.7002 39.7451 96.5335 39.5294 96.4551 39.2549C96.3963 38.9804 96.3669 38.6863 96.3669 38.3726V21.402C96.3669 21.0686 96.3963 20.7647 96.4551 20.4902C96.5335 20.2157 96.6904 20 96.9257 19.8431C97.1806 19.6863 97.5923 19.6078 98.161 19.6078C98.71 19.6078 99.1021 19.6863 99.3374 19.8431C99.5923 20 99.7492 20.2157 99.808 20.4902C99.8865 20.7647 99.9257 21.0686 99.9257 21.402V36.9902H108.896C109.19 36.9902 109.455 37.0196 109.69 37.0784C109.926 37.1177 110.112 37.2549 110.249 37.4902C110.386 37.7059 110.455 38.0588 110.455 38.549C110.455 39.0392 110.386 39.402 110.249 39.6373C110.112 39.8529 109.926 39.9902 109.69 40.049C109.455 40.1275 109.19 40.1667 108.896 40.1667H98.1904Z" fill="#324168"></path>
  <path d="M114.765 40.1667C114.216 40.1667 113.814 40.0784 113.559 39.902C113.304 39.7451 113.147 39.5294 113.088 39.2549C113.029 38.9804 113 38.6765 113 38.3431V21.3726C113 20.7059 113.127 20.2451 113.382 19.9902C113.657 19.7353 114.147 19.6078 114.853 19.6078H126.323C126.657 19.6078 126.951 19.6471 127.206 19.7255C127.48 19.7843 127.696 19.9412 127.853 20.1961C128.01 20.4314 128.088 20.8333 128.088 21.402C128.088 21.951 128 22.3529 127.823 22.6078C127.667 22.8628 127.451 23.0196 127.176 23.0784C126.921 23.1373 126.627 23.1667 126.294 23.1667H116.559V28.1079H123.265C123.598 28.1079 123.882 28.1471 124.118 28.2255C124.353 28.2843 124.539 28.4216 124.676 28.6373C124.814 28.8529 124.882 29.2157 124.882 29.7255C124.882 30.2157 124.814 30.5784 124.676 30.8137C124.539 31.0294 124.343 31.1667 124.088 31.2255C123.833 31.2647 123.539 31.2843 123.206 31.2843H116.559V36.5784H126.323C126.657 36.5784 126.951 36.6177 127.206 36.6961C127.48 36.7549 127.696 36.9118 127.853 37.1667C128.01 37.4216 128.088 37.8235 128.088 38.3726C128.088 38.9216 128 39.3235 127.823 39.5784C127.667 39.8333 127.451 39.9902 127.176 40.049C126.921 40.1275 126.627 40.1667 126.294 40.1667H114.765Z" fill="#324168"></path>
  <path d="M132.917 40.1667C132.368 40.1667 131.966 40.0784 131.711 39.902C131.456 39.7451 131.3 39.5294 131.241 39.2549C131.182 38.9804 131.152 38.6765 131.152 38.3431V21.3726C131.152 20.7059 131.28 20.2451 131.535 19.9902C131.809 19.7353 132.3 19.6078 133.005 19.6078H144.476C144.809 19.6078 145.103 19.6471 145.358 19.7255C145.633 19.7843 145.849 19.9412 146.005 20.1961C146.162 20.4314 146.241 20.8333 146.241 21.402C146.241 21.951 146.152 22.3529 145.976 22.6078C145.819 22.8628 145.603 23.0196 145.329 23.0784C145.074 23.1373 144.78 23.1667 144.447 23.1667H134.711V28.1079H141.417C141.751 28.1079 142.035 28.1471 142.27 28.2255C142.505 28.2843 142.692 28.4216 142.829 28.6373C142.966 28.8529 143.035 29.2157 143.035 29.7255C143.035 30.2157 142.966 30.5784 142.829 30.8137C142.692 31.0294 142.496 31.1667 142.241 31.2255C141.986 31.2647 141.692 31.2843 141.358 31.2843H134.711V36.5784H144.476C144.809 36.5784 145.103 36.6177 145.358 36.6961C145.633 36.7549 145.849 36.9118 146.005 37.1667C146.162 37.4216 146.241 37.8235 146.241 38.3726C146.241 38.9216 146.152 39.3235 145.976 39.5784C145.819 39.8333 145.603 39.9902 145.329 40.049C145.074 40.1275 144.78 40.1667 144.447 40.1667H132.917Z" fill="#324168"></path>
  <path d="M150.893 40.1373C150.344 40.1373 149.942 40.0588 149.687 39.902C149.432 39.7451 149.276 39.5294 149.217 39.2549C149.158 38.9608 149.129 38.6569 149.129 38.3431V21.3726C149.129 21.0588 149.158 20.7745 149.217 20.5196C149.295 20.2451 149.462 20.0294 149.717 19.8726C149.972 19.6961 150.374 19.6078 150.923 19.6078H157.158C158.021 19.6078 158.864 19.7549 159.687 20.049C160.511 20.3431 161.246 20.7843 161.893 21.3726C162.56 21.9608 163.08 22.6863 163.452 23.549C163.844 24.4118 164.04 25.4216 164.04 26.5784C164.04 27.7157 163.844 28.7157 163.452 29.5784C163.08 30.4216 162.56 31.1373 161.893 31.7255C161.227 32.3137 160.482 32.7549 159.658 33.049C158.854 33.3431 158.011 33.4902 157.129 33.4902H152.687V38.3726C152.687 38.6863 152.648 38.9804 152.57 39.2549C152.511 39.5294 152.354 39.7451 152.099 39.902C151.864 40.0588 151.462 40.1373 150.893 40.1373ZM152.687 29.902H157.158C157.766 29.902 158.315 29.7843 158.805 29.549C159.315 29.2941 159.727 28.9216 160.04 28.4314C160.354 27.9216 160.511 27.2843 160.511 26.5196C160.511 25.8333 160.364 25.2451 160.07 24.7549C159.795 24.2451 159.403 23.8529 158.893 23.5784C158.403 23.3039 157.815 23.1667 157.129 23.1667H152.687V29.902Z" fill="#324168"></path>
  <path d="M81.7549 64.9706C81.2451 64.9706 80.8628 64.8824 80.6079 64.7059C80.353 64.5491 80.1863 64.3334 80.1079 64.0589C80.0294 63.7844 79.9902 63.4902 79.9902 63.1765V46.1765C79.9902 45.8628 80.0196 45.5785 80.0785 45.3236C80.1569 45.0491 80.3236 44.8334 80.5785 44.6765C80.8334 44.5 81.2353 44.4118 81.7844 44.4118L87.3138 44.4412C88.7451 44.4412 90.0589 44.6863 91.2549 45.1765C92.4706 45.6667 93.5196 46.3628 94.402 47.2648C95.2844 48.1667 95.9608 49.2451 96.4314 50.5C96.9216 51.7353 97.1667 53.0981 97.1667 54.5883C97.1667 56.1177 96.9216 57.5197 96.4314 58.7942C95.9412 60.0687 95.2549 61.1667 94.3726 62.0883C93.4902 63.0099 92.4412 63.7255 91.2255 64.2353C90.0294 64.7255 88.6961 64.9706 87.2255 64.9706H81.7549ZM83.5491 61.4118H87.3138C88.5687 61.4118 89.6667 61.1373 90.6079 60.5883C91.5491 60.0197 92.2745 59.2353 92.7844 58.2353C93.3138 57.2353 93.5785 56.0687 93.5785 54.7353C93.5785 53.3824 93.3138 52.2059 92.7844 51.2059C92.2745 50.1863 91.5393 49.402 90.5785 48.853C89.6373 48.2844 88.5393 48 87.2844 48H83.5491V61.4118Z" fill="#324168"></path>
  <path d="M109.275 65.2353C107.863 65.2353 106.54 64.9706 105.305 64.4412C104.089 63.8922 103.01 63.1471 102.069 62.2059C101.128 61.2451 100.393 60.1471 99.8634 58.9118C99.334 57.6569 99.0693 56.3138 99.0693 54.8824C99.0693 53.4118 99.3242 52.0393 99.834 50.7648C100.363 49.4706 101.079 48.3432 101.981 47.3824C102.903 46.402 103.961 45.6373 105.158 45.0883C106.354 44.5393 107.638 44.2648 109.01 44.2648C110.442 44.2648 111.765 44.5393 112.981 45.0883C114.216 45.6177 115.295 46.3628 116.216 47.3236C117.138 48.2844 117.863 49.402 118.393 50.6765C118.922 51.9314 119.187 53.2942 119.187 54.7648C119.187 56.1961 118.932 57.5491 118.422 58.8236C117.912 60.0785 117.197 61.1961 116.275 62.1765C115.354 63.1373 114.295 63.8922 113.099 64.4412C111.922 64.9706 110.648 65.2353 109.275 65.2353ZM109.128 61.6471C110.03 61.6471 110.873 61.4706 111.658 61.1177C112.442 60.7648 113.128 60.2746 113.716 59.6471C114.324 59.0197 114.795 58.2942 115.128 57.4706C115.461 56.6275 115.628 55.7255 115.628 54.7648C115.628 53.804 115.452 52.9118 115.099 52.0883C114.765 51.2451 114.295 50.5099 113.687 49.8824C113.099 49.2353 112.412 48.7353 111.628 48.3824C110.863 48.0295 110.03 47.853 109.128 47.853C108.246 47.853 107.412 48.0295 106.628 48.3824C105.844 48.7353 105.148 49.2353 104.54 49.8824C103.952 50.5099 103.491 51.2451 103.158 52.0883C102.824 52.9314 102.658 53.8236 102.658 54.7648C102.658 55.7059 102.824 56.5981 103.158 57.4412C103.51 58.2844 103.981 59.0197 104.569 59.6471C105.158 60.2746 105.834 60.7648 106.599 61.1177C107.383 61.4706 108.226 61.6471 109.128 61.6471Z" fill="#324168"></path>
  <path d="M131.35 65.1177C130.389 65.1177 129.418 64.9804 128.438 64.7059C127.458 64.4118 126.517 63.9804 125.615 63.4118C124.713 62.8236 123.909 62.1079 123.203 61.2648C122.517 60.402 121.967 59.4118 121.556 58.2942C121.144 57.1569 120.938 55.902 120.938 54.5295C120.938 53.1765 121.144 51.9608 121.556 50.8824C121.967 49.7844 122.517 48.8236 123.203 48C123.909 47.1765 124.703 46.4902 125.585 45.9412C126.487 45.3922 127.428 44.9804 128.409 44.7059C129.409 44.4118 130.399 44.2549 131.379 44.2353C132.379 44.2353 133.242 44.3432 133.967 44.5589C134.693 44.7746 135.281 45.0098 135.732 45.2648C136.183 45.5 136.487 45.6667 136.644 45.7648C136.958 45.9608 137.252 46.1863 137.526 46.4412C137.82 46.6765 137.977 46.9706 137.997 47.3236C138.017 47.5589 137.987 47.7746 137.909 47.9706C137.83 48.1471 137.722 48.3334 137.585 48.5295C137.35 48.8628 137.115 49.1079 136.879 49.2648C136.644 49.4216 136.409 49.5 136.173 49.5C135.958 49.5 135.752 49.4412 135.556 49.3236C135.379 49.2059 135.154 49.0589 134.879 48.8824C134.762 48.804 134.546 48.6863 134.232 48.5295C133.938 48.353 133.536 48.1961 133.026 48.0589C132.536 47.9216 131.938 47.853 131.232 47.853C130.389 47.853 129.566 48 128.762 48.2942C127.958 48.5883 127.232 49.0295 126.585 49.6177C125.958 50.1863 125.458 50.902 125.085 51.7648C124.713 52.6079 124.526 53.5785 124.526 54.6765C124.526 55.7746 124.713 56.755 125.085 57.6177C125.458 58.4608 125.958 59.1765 126.585 59.7648C127.232 60.3334 127.958 60.7648 128.762 61.0589C129.566 61.353 130.389 61.5001 131.232 61.5001C131.899 61.5001 132.467 61.4412 132.938 61.3236C133.428 61.1863 133.84 61.0295 134.173 60.853C134.526 60.6569 134.791 60.5099 134.967 60.4118C135.183 60.2746 135.389 60.1471 135.585 60.0295C135.781 59.9118 135.987 59.853 136.203 59.853C136.438 59.853 136.664 59.9314 136.879 60.0883C137.115 60.2451 137.34 60.5 137.556 60.853C137.693 61.0687 137.801 61.2746 137.879 61.4706C137.958 61.6667 137.987 61.8726 137.967 62.0883C137.948 62.4412 137.791 62.7451 137.497 63.0001C137.222 63.2353 136.928 63.4412 136.615 63.6177C136.458 63.7157 136.154 63.8922 135.703 64.1471C135.271 64.3824 134.693 64.5981 133.967 64.7942C133.242 65.0098 132.369 65.1177 131.35 65.1177Z" fill="#324168"></path>
  <path d="M155.976 44.4118C156.27 44.4118 156.525 44.4412 156.74 44.5C156.976 44.5589 157.162 44.7059 157.299 44.9412C157.436 45.1569 157.505 45.5098 157.505 46C157.505 46.4902 157.436 46.853 157.299 47.0883C157.162 47.304 156.976 47.4412 156.74 47.5C156.505 47.5393 156.24 47.5589 155.946 47.5589H150.534V63.2353C150.534 63.5687 150.495 63.8726 150.417 64.1471C150.358 64.402 150.201 64.6079 149.946 64.7648C149.711 64.9216 149.309 65.0001 148.74 65.0001C148.211 65.0001 147.819 64.9118 147.564 64.7353C147.309 64.5785 147.152 64.3726 147.093 64.1177C147.034 63.8432 147.005 63.5393 147.005 63.2059V47.5589H141.534C141.26 47.5589 141.005 47.5295 140.77 47.4706C140.534 47.4118 140.338 47.2746 140.181 47.0589C140.044 46.8432 139.976 46.4902 139.976 46C139.976 45.5098 140.044 45.1569 140.181 44.9412C140.319 44.7059 140.505 44.5589 140.74 44.5C140.995 44.4412 141.26 44.4118 141.534 44.4118H155.976Z" fill="#324168"></path>
  <path d="M167.496 65.2353C166.084 65.2353 164.76 64.9706 163.525 64.4412C162.309 63.8922 161.231 63.1471 160.29 62.2059C159.348 61.2451 158.613 60.1471 158.084 58.9118C157.554 57.6569 157.29 56.3138 157.29 54.8824C157.29 53.4118 157.545 52.0393 158.054 50.7648C158.584 49.4706 159.299 48.3432 160.201 47.3824C161.123 46.402 162.182 45.6373 163.378 45.0883C164.574 44.5393 165.858 44.2648 167.231 44.2648C168.662 44.2648 169.986 44.5393 171.201 45.0883C172.437 45.6177 173.515 46.3628 174.437 47.3236C175.358 48.2844 176.084 49.402 176.613 50.6765C177.143 51.9314 177.407 53.2942 177.407 54.7648C177.407 56.1961 177.152 57.5491 176.643 58.8236C176.133 60.0785 175.417 61.1961 174.496 62.1765C173.574 63.1373 172.515 63.8922 171.319 64.4412C170.143 64.9706 168.868 65.2353 167.496 65.2353ZM167.348 61.6471C168.25 61.6471 169.094 61.4706 169.878 61.1177C170.662 60.7648 171.348 60.2746 171.937 59.6471C172.545 59.0197 173.015 58.2942 173.348 57.4706C173.682 56.6275 173.848 55.7255 173.848 54.7648C173.848 53.804 173.672 52.9118 173.319 52.0883C172.986 51.2451 172.515 50.5099 171.907 49.8824C171.319 49.2353 170.633 48.7353 169.848 48.3824C169.084 48.0295 168.25 47.853 167.348 47.853C166.466 47.853 165.633 48.0295 164.848 48.3824C164.064 48.7353 163.368 49.2353 162.76 49.8824C162.172 50.5099 161.711 51.2451 161.378 52.0883C161.045 52.9314 160.878 53.8236 160.878 54.7648C160.878 55.7059 161.045 56.5981 161.378 57.4412C161.731 58.2844 162.201 59.0197 162.79 59.6471C163.378 60.2746 164.054 60.7648 164.819 61.1177C165.603 61.4706 166.446 61.6471 167.348 61.6471Z" fill="#324168"></path>
  <path d="M181.629 64.9706C181.08 64.9706 180.678 64.8922 180.423 64.7353C180.188 64.5785 180.031 64.3628 179.953 64.0883C179.894 63.7942 179.864 63.4902 179.864 63.1765V46.2059C179.864 45.8922 179.904 45.6079 179.982 45.353C180.06 45.0785 180.217 44.8628 180.453 44.7059C180.707 44.5295 181.109 44.4412 181.658 44.4412H187.953C188.855 44.4412 189.707 44.5883 190.511 44.8824C191.335 45.1569 192.07 45.5883 192.717 46.1765C193.364 46.7451 193.874 47.4706 194.247 48.353C194.639 49.2157 194.835 50.2255 194.835 51.3824C194.835 52.1471 194.717 52.9118 194.482 53.6765C194.247 54.4216 193.894 55.1177 193.423 55.7648C192.972 56.3922 192.394 56.9314 191.688 57.3824C190.982 57.8334 190.149 58.1275 189.188 58.2648H183.423V63.2059C183.423 63.5197 183.384 63.8138 183.305 64.0883C183.247 64.3628 183.09 64.5785 182.835 64.7353C182.6 64.8922 182.198 64.9706 181.629 64.9706ZM194.158 64.5295C193.59 64.9216 193.119 65.0687 192.747 64.9706C192.394 64.8726 192.041 64.5589 191.688 64.0295L186.747 56.5589L190.717 56.0295L194.629 61.9706C194.904 62.3628 195.07 62.6961 195.129 62.9706C195.188 63.2452 195.139 63.5001 194.982 63.7353C194.825 63.9706 194.551 64.2353 194.158 64.5295ZM183.423 54.7353H188.394C188.747 54.7353 189.09 54.6765 189.423 54.5589C189.776 54.4216 190.09 54.2157 190.364 53.9412C190.639 53.6471 190.855 53.2942 191.011 52.8824C191.188 52.451 191.276 51.9412 191.276 51.353C191.276 50.6471 191.139 50.0491 190.864 49.5589C190.59 49.0491 190.198 48.6667 189.688 48.4118C189.198 48.1373 188.6 48 187.894 48H183.423V54.7353Z" fill="#324168"></path>
</svg>
