<svg xmlns="http://www.w3.org/2000/svg" width="70" height="48" viewBox="0 0 70 48" fill="none">
  <path d="M67.9942 22H35.0229C33.8991 22 33 21.1083 33 19.9938V2.00624C33 0.908807 33.9163 0 35.0229 0H66.611C68.4783 0 69.9998 1.50896 69.9998 3.36087V19.9938C70.017 21.1083 69.1007 22 67.9942 22Z" fill="#29E8B2"></path>
  <path d="M34.9942 48H3.38876C1.52149 48 0 46.5082 0 44.6391V28.0062C0 26.8917 0.89906 26 2.02288 26H34.9769C36.1007 26 36.9998 26.8917 36.9998 28.0062V45.9938C37.017 47.1083 36.1007 48 34.9942 48Z" fill="#29E8B2"></path>
  <path d="M48.3048 48H43.0016C41.8896 48 41 47.1083 41 45.9938V28.0062C41 26.8917 41.8896 26 43.0016 26H60.9984C62.1104 26 63 26.8917 63 28.0062V33.2705C63 41.4154 56.4137 48 48.3048 48Z" fill="#29E8B2"></path>
  <path d="M21.6952 0H26.9984C28.1104 0 29 0.89166 29 2.00624V19.9938C29 21.1083 28.1104 22 26.9984 22H9.00156C7.88958 22 7 21.1083 7 19.9938V14.7295C7 6.60172 13.5692 0 21.6952 0Z" fill="#29E8B2"></path>
</svg>
