<svg width="201" height="51" viewBox="0 0 201 51" fill="none" xmlns="http://www.w3.org/2000/svg">
<path d="M61.9631 26.519C63.0917 26.519 63.9945 27.4368 63.9945 28.5571V33.9086C63.9945 42.1802 57.3183 48.8785 49.0858 48.8785H43.7044C42.5759 48.8785 41.673 47.9607 41.673 46.8404V28.5571C41.673 27.4249 42.5878 26.519 43.7044 26.519H61.9631ZM35.1394 26.519C36.2679 26.519 37.1707 27.4368 37.1707 28.5571V46.8404C37.1707 47.9727 36.2798 48.8785 35.1512 48.8785H3.4094C1.52057 48.8785 0 47.341 0 45.4578V28.5571C0 27.4249 0.914716 26.519 2.03138 26.519H35.1394ZM66.608 0.309885C68.4968 0.309885 70.0174 1.84739 70.0174 3.73054V20.6312C70.0174 21.7635 69.1027 22.6812 67.9741 22.6812H34.8661C33.7376 22.6812 32.8348 21.7635 32.8348 20.6431V2.34798C32.8348 1.2157 33.7495 0.309885 34.8661 0.309885H66.608ZM26.4555 0.309885C27.584 0.309885 28.4869 1.22762 28.4869 2.34798V20.6312C28.4869 21.7635 27.5722 22.6693 26.4555 22.6693H8.18493C7.05638 22.6693 6.15355 21.7516 6.15355 20.6312V15.2797C6.15355 7.00818 12.8298 0.309885 21.0741 0.309885H26.4555Z" fill="white"/>
<path d="M99.9773 19.5705C102.448 19.5705 104.099 20.512 104.931 22.3952C105.109 22.7885 105.24 23.2295 105.299 23.742C105.371 24.2426 105.406 24.8981 105.406 25.6847V28.724C105.406 29.451 105.371 30.0708 105.287 30.5833C105.216 31.1077 105.085 31.5845 104.931 32.0136C104.527 33.0028 103.909 33.7537 103.066 34.2662C102.223 34.7906 101.189 35.0409 99.9773 35.0409C97.5064 35.0409 95.8551 34.0993 95.0236 32.2162C94.8454 31.8229 94.7147 31.3819 94.6553 30.8694C94.584 30.3688 94.5484 29.7133 94.5484 28.9266V25.8874C94.5484 25.1603 94.5841 24.5405 94.6672 24.028C94.7385 23.5036 94.8691 23.0269 95.0236 22.5978C95.4275 21.6086 96.0452 20.8577 96.8886 20.3452C97.7321 19.8208 98.7656 19.5705 99.9773 19.5705ZM182.04 19.5705C184.511 19.5705 186.163 20.512 186.994 22.3952C187.172 22.7885 187.303 23.2295 187.362 23.742C187.434 24.2426 187.469 24.8981 187.469 25.6847V28.724C187.469 29.451 187.434 30.0708 187.351 30.5833C187.267 31.0958 187.149 31.5845 186.994 32.0136C186.59 33.0028 185.973 33.7537 185.129 34.2662C184.286 34.7906 183.252 35.0409 182.04 35.0409C179.57 35.0409 177.918 34.0993 177.087 32.2162C176.909 31.8229 176.778 31.3819 176.718 30.8694C176.647 30.3688 176.612 29.7133 176.612 28.9266V25.8874C176.612 25.1603 176.647 24.5405 176.73 24.028C176.802 23.5036 176.932 23.0269 177.087 22.5978C177.491 21.6086 178.108 20.8577 178.952 20.3452C179.795 19.8208 180.817 19.5705 182.04 19.5705ZM109.683 19.9042C109.956 19.9042 110.134 19.9399 110.217 20.0234C110.301 20.1068 110.336 20.2617 110.336 20.5001V29.5226C110.336 31.656 111.18 32.7287 112.89 32.7287H113.14C114.838 32.7287 115.682 31.656 115.682 29.5226V20.5001C115.682 20.2617 115.718 20.1068 115.801 20.0234C115.884 19.9399 116.062 19.9042 116.335 19.9042H117.535C117.808 19.9042 117.987 19.9399 118.07 20.0234C118.188 20.1068 118.236 20.2617 118.236 20.5001V29.5464C118.236 31.3461 117.796 32.7168 116.929 33.6464C116.062 34.5761 114.791 35.0409 113.116 35.0409H112.95C111.275 35.0409 110.004 34.5761 109.136 33.6464C108.269 32.7168 107.83 31.358 107.83 29.5464V20.5001C107.83 20.2617 107.865 20.1068 107.948 20.0234C108.032 19.9399 108.21 19.9042 108.483 19.9042H109.683ZM139.108 19.9042C140.462 19.9042 141.532 20.1783 142.327 20.7385C143.123 21.2867 143.682 21.9542 144.014 22.7408C144.169 23.1103 144.288 23.5394 144.371 24.0042C144.466 24.469 144.501 25.1007 144.501 25.8874V28.8551C144.501 29.6298 144.454 30.2496 144.371 30.7025C144.276 31.1554 144.157 31.5726 144.014 31.9301C143.694 32.6929 143.171 33.3484 142.434 33.8967C141.698 34.445 140.688 34.7191 139.417 34.7191H134.879C134.618 34.7191 134.44 34.6833 134.344 34.5999C134.249 34.5284 134.214 34.3615 134.214 34.1112V20.512C134.214 20.2617 134.261 20.0949 134.344 20.0234C134.44 19.9399 134.618 19.9042 134.879 19.9042H139.108ZM92.1488 19.8923C92.3982 19.8923 92.5646 19.9399 92.6358 20.0234C92.7071 20.1187 92.7546 20.2856 92.7546 20.5597V21.4774C92.7546 21.7397 92.719 21.9184 92.6358 22.0138C92.5646 22.1091 92.3982 22.1449 92.1488 22.1449H86.3278V25.8039H91.6142C91.8637 25.8039 92.03 25.8516 92.1012 25.935C92.1725 26.0304 92.22 26.1972 92.22 26.4714V27.3891C92.22 27.6513 92.1844 27.8301 92.1012 27.9254C92.0181 28.0089 91.8637 28.0446 91.6142 28.0446H86.3278V34.0993C86.3278 34.3496 86.2803 34.5165 86.1972 34.588C86.1021 34.6595 85.9358 34.7072 85.6626 34.7072H84.4628C84.2014 34.7072 84.0232 34.6714 83.9282 34.588C83.8332 34.5165 83.7975 34.3496 83.7975 34.0993V20.5001C83.7975 20.2498 83.845 20.083 83.9282 20.0115C84.0232 19.9399 84.1895 19.8923 84.4628 19.8923H92.1488ZM122.893 19.8923C123.154 19.8923 123.344 19.928 123.463 19.9876C123.582 20.0472 123.712 20.2141 123.843 20.4763L128.797 29.892V20.5001C128.797 20.2498 128.844 20.083 128.927 20.0115C129.023 19.9399 129.189 19.8923 129.462 19.8923H130.602C130.864 19.8923 131.042 19.928 131.137 20.0115C131.232 20.083 131.268 20.2498 131.268 20.5001V34.0993C131.268 34.3496 131.22 34.5165 131.137 34.588C131.042 34.6595 130.876 34.7072 130.602 34.7072H129.403C129.141 34.7072 128.951 34.6714 128.832 34.6118C128.714 34.5522 128.595 34.3854 128.452 34.1232L123.499 24.7074V34.0993C123.499 34.3496 123.451 34.5165 123.368 34.588C123.273 34.6595 123.107 34.7072 122.833 34.7072H121.693C121.432 34.7072 121.253 34.6714 121.158 34.588C121.063 34.5165 121.028 34.3496 121.028 34.0993V20.5001C121.028 20.2498 121.075 20.083 121.158 20.0115C121.253 19.9399 121.42 19.8923 121.693 19.8923H122.893ZM168.937 19.8923C169.187 19.8923 169.353 19.9399 169.424 20.0234C169.496 20.1187 169.543 20.2856 169.543 20.5597V21.4774C169.543 21.7397 169.508 21.9184 169.424 22.0138C169.353 22.1091 169.187 22.1449 168.937 22.1449H165.314V34.0993C165.314 34.3496 165.267 34.5165 165.184 34.588C165.088 34.6595 164.922 34.7072 164.649 34.7072H163.449C163.188 34.7072 163.01 34.6714 162.915 34.588C162.831 34.5046 162.784 34.3496 162.784 34.0993V22.1449H159.161C158.911 22.1449 158.745 22.0972 158.674 22.0138C158.602 21.9184 158.555 21.7516 158.555 21.4774V20.5597C158.555 20.2975 158.59 20.1187 158.674 20.0234C158.745 19.928 158.911 19.8923 159.161 19.8923H168.937ZM173.368 19.8923C173.63 19.8923 173.808 19.928 173.903 20.0115C173.998 20.0949 174.034 20.2498 174.034 20.5001V34.0993C174.034 34.3496 173.986 34.5165 173.903 34.588C173.808 34.6595 173.642 34.7072 173.368 34.7072H172.169C171.907 34.7072 171.729 34.6714 171.634 34.588C171.539 34.5165 171.503 34.3496 171.503 34.0993V20.5001C171.503 20.2498 171.551 20.083 171.634 20.0115C171.729 19.9399 171.895 19.8923 172.169 19.8923H173.368ZM191.888 19.8923C192.15 19.8923 192.34 19.928 192.459 19.9876C192.577 20.0472 192.708 20.2141 192.839 20.4763L197.793 29.892V20.5001C197.793 20.2498 197.84 20.083 197.923 20.0115C198.018 19.9399 198.185 19.8923 198.458 19.8923H199.598C199.86 19.8923 200.038 19.928 200.133 20.0115C200.228 20.083 200.263 20.2498 200.263 20.5001V34.0993C200.263 34.3496 200.216 34.5165 200.133 34.588C200.038 34.6595 199.871 34.7072 199.598 34.7072H198.398C198.137 34.7072 197.947 34.6714 197.828 34.6118C197.709 34.5522 197.591 34.3854 197.448 34.1232L192.494 24.7074V34.0993C192.494 34.3496 192.447 34.5165 192.364 34.588C192.269 34.6595 192.102 34.7072 191.829 34.7072H190.689C190.427 34.7072 190.249 34.6714 190.154 34.588C190.059 34.5165 190.023 34.3496 190.023 34.0993V20.5001C190.023 20.2498 190.071 20.083 190.154 20.0115C190.249 19.9399 190.415 19.8923 190.689 19.8923H191.888ZM153.185 19.9042C153.375 19.9042 153.53 19.928 153.625 19.9638C153.72 19.9995 153.803 20.1068 153.851 20.2737L158.448 34.0993C158.472 34.2066 158.484 34.29 158.484 34.3258C158.484 34.5761 158.329 34.6953 158.032 34.6953H156.583C156.321 34.6953 156.155 34.6595 156.072 34.5761C155.989 34.4926 155.918 34.3377 155.834 34.0874L154.884 31.1554H149.455L148.529 34.1112C148.445 34.3615 148.362 34.5165 148.291 34.588C148.22 34.6595 148.042 34.6953 147.78 34.6953H146.414C146.105 34.6953 145.963 34.5761 145.963 34.3258C145.963 34.29 145.963 34.2066 145.998 34.0993L150.655 20.2737C150.714 20.1068 150.786 19.9995 150.881 19.9638C150.976 19.928 151.118 19.9042 151.32 19.9042H153.185ZM99.9773 21.7873C98.9557 21.7873 98.231 22.0734 97.7915 22.6574C97.352 23.2414 97.1381 24.2068 97.1381 25.5536V29.0458C97.1381 30.3926 97.352 31.358 97.7915 31.942C98.231 32.5261 98.9557 32.8121 99.9773 32.8121C100.999 32.8121 101.724 32.5261 102.163 31.942C102.603 31.358 102.816 30.3926 102.816 29.0458V25.5536C102.816 24.2068 102.603 23.2414 102.163 22.6574C101.735 22.0853 100.999 21.7873 99.9773 21.7873ZM182.04 21.7873C181.019 21.7873 180.294 22.0734 179.855 22.6574C179.415 23.2414 179.201 24.2068 179.201 25.5536V29.0458C179.201 30.3926 179.415 31.358 179.855 31.942C180.294 32.5261 181.019 32.8121 182.04 32.8121C183.062 32.8121 183.787 32.5261 184.226 31.942C184.666 31.358 184.88 30.3926 184.88 29.0458V25.5536C184.88 24.2068 184.666 23.2414 184.226 22.6574C183.787 22.0853 183.062 21.7873 182.04 21.7873ZM136.744 22.1449V32.4545H139.061C139.678 32.4545 140.201 32.3473 140.629 32.1327C141.045 31.9182 141.365 31.5487 141.591 31.0243C141.817 30.4999 141.924 29.7728 141.924 28.8432V25.7682C141.924 24.4094 141.674 23.4679 141.163 22.9434C140.664 22.419 139.963 22.1568 139.061 22.1568H136.744V22.1449ZM152.152 22.6693L150.144 28.9862H154.183L152.152 22.6693ZM88.2642 0C89.9986 0 91.2934 0.464828 92.1369 1.39448C92.719 2.06193 93.0041 2.86048 93.0041 3.80206C93.0041 4.02851 92.9566 4.17154 92.8734 4.25497C92.7784 4.32648 92.6121 4.37415 92.3388 4.37415H91.1628C90.9014 4.37415 90.7232 4.3384 90.6401 4.26688C90.5569 4.19537 90.4975 4.06427 90.4738 3.84973C90.355 2.71746 89.5472 2.14536 88.0504 2.14536C86.5536 2.14536 85.7695 2.83664 85.7695 4.20729C85.7695 4.75555 85.9239 5.18462 86.2209 5.48259C86.5179 5.78056 87.0762 6.05469 87.884 6.30498L90.0817 6.99626C91.1271 7.31806 91.9112 7.81865 92.4339 8.49801C92.9566 9.17738 93.206 10.0236 93.206 11.0009V11.2751C93.206 12.6219 92.7665 13.6588 91.8993 14.3858C91.0321 15.1129 89.7966 15.4704 88.2048 15.4704C86.3278 15.4704 84.9498 15.0294 84.0826 14.1594C83.358 13.4085 83.0016 12.5384 83.0016 11.5611C83.0016 11.3347 83.0491 11.1916 83.1323 11.1082C83.2273 11.0367 83.3936 10.989 83.6668 10.989H84.831C85.0805 10.989 85.2468 11.0248 85.3418 11.0963C85.4369 11.1559 85.4963 11.287 85.5438 11.5015C85.6626 12.0975 85.9358 12.5504 86.3516 12.8483C86.7674 13.1463 87.3495 13.3012 88.1097 13.3012C88.9769 13.3012 89.6066 13.1463 89.9986 12.8245C90.3906 12.5027 90.5807 12.0021 90.5807 11.3108C90.5807 10.7626 90.4262 10.2977 90.1055 9.95209C89.7848 9.59453 89.2739 9.30848 88.5731 9.09395L86.3754 8.40266C85.3537 8.08086 84.5697 7.59219 84.0232 6.92475C83.4768 6.2573 83.2036 5.47067 83.2036 4.55293V4.36223C83.2036 2.97967 83.6431 1.90699 84.534 1.14419C85.4131 0.381398 86.6605 0 88.2642 0ZM97.3163 0.309885C97.5777 0.309885 97.7559 0.345642 97.8509 0.429072C97.9459 0.500584 97.9816 0.667446 97.9816 0.917738V12.8722H103.494C103.743 12.8722 103.909 12.9198 103.981 13.0033C104.064 13.0986 104.099 13.2655 104.099 13.5277V14.4454C104.099 14.7076 104.064 14.8864 103.981 14.9818C103.909 15.0771 103.743 15.1129 103.494 15.1129H96.1165C95.8551 15.1129 95.6769 15.0771 95.5819 14.9937C95.4869 14.9222 95.4512 14.7553 95.4512 14.505V0.917738C95.4512 0.667446 95.4988 0.500584 95.5819 0.429072C95.6769 0.35756 95.8433 0.309885 96.1165 0.309885H97.3163ZM114.458 0.309885C114.708 0.309885 114.874 0.35756 114.945 0.440991C115.017 0.53634 115.064 0.703202 115.064 0.977331V1.89507C115.064 2.15728 115.029 2.33606 114.945 2.43141C114.874 2.52676 114.708 2.56251 114.458 2.56251H108.59V6.38841H113.912C114.161 6.38841 114.328 6.43608 114.399 6.51951C114.47 6.61486 114.518 6.78172 114.518 7.05585V7.97359C114.518 8.2358 114.482 8.41458 114.399 8.50993C114.328 8.60528 114.161 8.64104 113.912 8.64104H108.59V12.8841H114.541C114.791 12.8841 114.957 12.9318 115.029 13.0152C115.112 13.0986 115.147 13.2655 115.147 13.5277V14.4454C115.147 14.7076 115.112 14.8864 115.029 14.9818C114.957 15.0771 114.791 15.1129 114.541 15.1129H106.725C106.463 15.1129 106.285 15.0771 106.19 14.9937C106.095 14.9222 106.06 14.7553 106.06 14.505V0.917738C106.06 0.667446 106.107 0.500584 106.19 0.429072C106.285 0.35756 106.452 0.309885 106.725 0.309885H114.458ZM126.1 0.309885C126.35 0.309885 126.516 0.35756 126.587 0.440991C126.659 0.53634 126.706 0.703202 126.706 0.977331V1.89507C126.706 2.15728 126.67 2.33606 126.587 2.43141C126.516 2.52676 126.35 2.56251 126.1 2.56251H120.232V6.38841H125.554C125.803 6.38841 125.97 6.43608 126.041 6.51951C126.112 6.61486 126.16 6.78172 126.16 7.05585V7.97359C126.16 8.2358 126.124 8.41458 126.041 8.50993C125.97 8.60528 125.803 8.64104 125.554 8.64104H120.232V12.8841H126.183C126.433 12.8841 126.599 12.9318 126.67 13.0152C126.754 13.0986 126.789 13.2655 126.789 13.5277V14.4454C126.789 14.7076 126.754 14.8864 126.67 14.9818C126.599 15.0771 126.433 15.1129 126.183 15.1129H118.367C118.105 15.1129 117.927 15.0771 117.832 14.9937C117.737 14.9222 117.701 14.7553 117.701 14.505V0.917738C117.701 0.667446 117.749 0.500584 117.832 0.429072C117.927 0.35756 118.093 0.309885 118.367 0.309885H126.1ZM134.143 0.309885C135.782 0.309885 137.029 0.655527 137.849 1.32297C138.68 2.00234 139.096 3.17037 139.096 4.81514V5.2323C139.096 6.74597 138.68 7.8544 137.837 8.55761C137.017 9.27273 135.782 9.61837 134.154 9.61837H131.85V14.505C131.85 14.7553 131.802 14.9222 131.719 14.9937C131.624 15.0652 131.458 15.1129 131.185 15.1129H130.02C129.759 15.1129 129.581 15.0771 129.486 14.9937C129.391 14.9222 129.355 14.7553 129.355 14.505V0.917738C129.355 0.667446 129.403 0.500584 129.486 0.429072C129.581 0.35756 129.747 0.309885 130.02 0.309885H134.143ZM134.154 2.47908H131.85V7.46109H134.154C134.855 7.46109 135.378 7.35382 135.723 7.1512C136.067 6.94859 136.281 6.66254 136.388 6.3169C136.495 5.97125 136.542 5.58986 136.542 5.19654V4.91049C136.542 4.45758 136.495 4.04043 136.388 3.67095C136.281 3.30147 136.067 3.01542 135.723 2.80089C135.378 2.58635 134.867 2.47908 134.154 2.47908Z" fill="white"/>
<path d="M197.365 44.3494C197.436 44.3494 197.484 44.3851 197.507 44.4686L199.052 48.6163L200.525 44.4686C200.549 44.3851 200.596 44.3494 200.667 44.3494H200.905C200.964 44.3494 201 44.3732 201 44.4328C201 44.4566 201 44.5043 200.964 44.5758L199.087 49.82C198.98 50.1299 198.874 50.3683 198.755 50.5471C198.648 50.714 198.517 50.8331 198.363 50.9046C198.208 50.9762 198.018 51 197.793 51H197.555C197.46 51 197.424 50.9523 197.424 50.8689V50.7378C197.412 50.6424 197.46 50.5948 197.543 50.5948H197.757C197.995 50.5948 198.173 50.5352 198.303 50.4041C198.434 50.273 198.553 50.0227 198.672 49.6532L198.814 49.2241L197.056 44.5758C197.032 44.5043 197.02 44.4566 197.02 44.4328C197.02 44.3732 197.056 44.3494 197.115 44.3494H197.365ZM183.11 44.1944C183.751 44.1944 184.238 44.3732 184.571 44.7427C184.903 45.1122 185.07 45.6485 185.07 46.3517V47.1979C185.07 47.9369 184.903 48.4971 184.571 48.8785C184.226 49.2837 183.739 49.4744 183.086 49.4744C182.29 49.4744 181.779 49.2003 181.565 48.6639V50.857C181.565 50.9523 181.518 50.9881 181.435 50.9881H181.233C181.138 50.9881 181.102 50.9404 181.102 50.857V46.3636C181.102 45.6604 181.28 45.1241 181.625 44.7546C181.969 44.3851 182.468 44.1944 183.11 44.1944ZM94.6197 42.2636C96.1521 42.2636 96.9243 43.1456 96.9243 44.9215V46.8404C96.9243 48.6043 96.1521 49.4982 94.6197 49.4982C93.0872 49.4982 92.327 48.6163 92.327 46.8404V44.9215C92.3151 43.1456 93.0872 42.2636 94.6197 42.2636ZM163.223 42.2755C164.186 42.2755 164.851 42.6331 165.195 43.3363C165.302 43.5389 165.35 43.7892 165.35 44.0872C165.35 44.1825 165.302 44.2183 165.219 44.2183H165.041C164.958 44.2183 164.91 44.1825 164.91 44.111C164.863 43.6462 164.696 43.3005 164.411 43.0622C164.126 42.8238 163.734 42.7046 163.235 42.7046C162.012 42.7046 161.406 43.4674 161.406 44.993V46.7808C161.406 47.5674 161.548 48.1395 161.845 48.509C162.142 48.8785 162.594 49.0692 163.2 49.0692C163.71 49.0692 164.114 48.95 164.399 48.7116C164.708 48.4732 164.887 48.1157 164.922 47.6628C164.922 47.5913 164.97 47.5555 165.053 47.5555H165.231C165.326 47.5555 165.362 47.6032 165.362 47.6866C165.362 47.8058 165.362 47.925 165.302 48.068C165.267 48.1991 165.219 48.3302 165.172 48.4375C165.005 48.7831 164.756 49.0453 164.411 49.2241C164.067 49.4029 163.663 49.4982 163.188 49.4982C162.439 49.4982 161.869 49.2718 161.477 48.8308C161.085 48.3898 160.895 47.7224 160.895 46.8523V44.9334C160.895 44.0633 161.097 43.4078 161.489 42.9549C161.881 42.502 162.463 42.2755 163.223 42.2755ZM111.881 42.2755C112.843 42.2755 113.508 42.6331 113.852 43.3363C113.959 43.5389 114.007 43.7892 114.007 44.0872C114.007 44.1825 113.959 44.2183 113.876 44.2183H113.698C113.615 44.2183 113.567 44.1825 113.567 44.111C113.52 43.6462 113.354 43.3005 113.068 43.0622C112.783 42.8238 112.391 42.7046 111.892 42.7046C110.669 42.7046 110.063 43.4674 110.063 44.993V46.7808C110.063 47.5674 110.205 48.1395 110.502 48.509C110.799 48.8785 111.251 49.0692 111.857 49.0692C112.368 49.0692 112.771 48.95 113.057 48.7116C113.365 48.4732 113.544 48.1157 113.579 47.6628C113.579 47.5913 113.627 47.5555 113.71 47.5555H113.888C113.983 47.5555 114.019 47.6032 114.019 47.6866C114.019 47.8058 114.007 47.925 113.959 48.068C113.924 48.1991 113.876 48.3302 113.829 48.4375C113.662 48.7831 113.413 49.0453 113.068 49.2241C112.724 49.4029 112.32 49.4982 111.845 49.4982C111.096 49.4982 110.526 49.2718 110.134 48.8308C109.742 48.3898 109.552 47.7224 109.552 46.8523V44.9334C109.552 44.0633 109.754 43.4078 110.146 42.9549C110.538 42.502 111.12 42.2755 111.881 42.2755ZM141.65 44.2064C142.268 44.2064 142.731 44.3851 143.04 44.7546C143.361 45.1122 143.515 45.6485 143.515 46.3517V46.8285C143.527 46.9119 143.48 46.9596 143.397 46.9596H140.142V47.2575C140.142 48.4613 140.641 49.0692 141.638 49.0692C141.983 49.0692 142.256 49.0096 142.458 48.8904C142.66 48.7712 142.826 48.5686 142.957 48.2825C142.993 48.1991 143.052 48.1634 143.112 48.1634H143.29C143.385 48.1634 143.42 48.1991 143.42 48.2825C143.42 48.366 143.385 48.4732 143.313 48.6163C143.242 48.7593 143.147 48.8785 143.052 48.9738C142.731 49.3075 142.244 49.4744 141.603 49.4744C140.961 49.4744 140.486 49.2956 140.154 48.9261C139.821 48.5567 139.655 48.0203 139.655 47.3171V46.459C139.655 45.7319 139.821 45.1718 140.165 44.7904C140.51 44.409 140.997 44.2064 141.65 44.2064ZM168.854 44.2064C169.496 44.2064 169.983 44.3851 170.315 44.7546C170.648 45.1241 170.814 45.6604 170.814 46.3636V47.3171C170.814 48.0084 170.636 48.5448 170.292 48.9142C169.947 49.2956 169.448 49.4744 168.807 49.4744C168.165 49.4744 167.678 49.2956 167.346 48.9261C167.013 48.5567 166.847 48.0203 166.847 47.3171V46.3636C166.847 45.6724 167.025 45.136 167.369 44.7665C167.714 44.3971 168.213 44.2064 168.854 44.2064ZM126.385 44.2064C127.003 44.2064 127.466 44.3851 127.775 44.7546C128.096 45.1122 128.25 45.6485 128.25 46.3517V46.8285C128.262 46.9119 128.215 46.9596 128.132 46.9596H124.877V47.2575C124.877 48.4613 125.376 49.0692 126.373 49.0692C126.718 49.0692 126.991 49.0096 127.193 48.8904C127.395 48.7712 127.561 48.5686 127.692 48.2825C127.728 48.1991 127.787 48.1634 127.846 48.1634H128.025C128.12 48.1634 128.155 48.1991 128.155 48.2825C128.155 48.366 128.12 48.4732 128.048 48.6163C127.977 48.7593 127.882 48.8785 127.787 48.9738C127.466 49.3075 126.979 49.4744 126.338 49.4744C125.696 49.4744 125.221 49.2956 124.888 48.9261C124.556 48.5567 124.39 48.0203 124.39 47.3171V46.459C124.39 45.7319 124.556 45.1718 124.9 44.7904C125.245 44.409 125.732 44.2064 126.385 44.2064ZM106.083 44.2064C106.701 44.2064 107.164 44.3851 107.473 44.7546C107.782 45.1241 107.948 45.6485 107.948 46.3517V46.8285C107.972 46.9119 107.925 46.9596 107.83 46.9596H104.575V47.2575C104.575 48.4613 105.074 49.0692 106.071 49.0692C106.416 49.0692 106.689 49.0096 106.891 48.8904C107.093 48.7712 107.259 48.5686 107.39 48.2825C107.426 48.1991 107.485 48.1634 107.545 48.1634H107.723C107.818 48.1634 107.853 48.1991 107.853 48.2825C107.853 48.366 107.818 48.4732 107.746 48.6163C107.675 48.7593 107.58 48.8785 107.485 48.9738C107.164 49.3075 106.677 49.4744 106.036 49.4744C105.394 49.4744 104.919 49.2956 104.587 48.9261C104.254 48.5567 104.088 48.0203 104.088 47.3171V46.459C104.088 45.7319 104.254 45.1718 104.598 44.7904C104.943 44.409 105.43 44.2064 106.083 44.2064ZM148.909 42.4305C149.004 42.4305 149.039 42.4781 149.039 42.5616V47.2814C149.039 47.9965 148.861 48.5448 148.517 48.9142C148.172 49.2837 147.673 49.4744 147.032 49.4744C146.39 49.4744 145.903 49.2956 145.571 48.9261C145.238 48.5567 145.072 48.0203 145.072 47.3171V46.4709C145.072 45.7319 145.238 45.1718 145.571 44.7904C145.915 44.3971 146.414 44.2064 147.055 44.2064C147.851 44.2064 148.362 44.4805 148.576 45.0168V42.5616C148.576 42.4662 148.624 42.4305 148.707 42.4305H148.909ZM188.479 44.2183C189.643 44.2183 190.237 44.7189 190.237 45.72V47.6985C190.237 48.3183 190.095 48.7593 189.798 49.0334C189.513 49.3075 189.037 49.4506 188.396 49.4506H188.313C187.683 49.4506 187.22 49.3314 186.947 49.093C186.662 48.8546 186.531 48.4732 186.531 47.9369C186.531 47.4006 186.685 46.9953 187.006 46.745C187.315 46.4828 187.814 46.3636 188.503 46.3636C188.693 46.3636 188.895 46.3636 189.121 46.3994C189.346 46.4351 189.56 46.4471 189.762 46.4828V45.7081C189.762 45.3505 189.655 45.0764 189.453 44.9096C189.251 44.7427 188.93 44.6473 188.503 44.6473C188.265 44.6473 188.063 44.6712 187.909 44.7069C187.754 44.7546 187.624 44.8261 187.517 44.9334C187.41 45.0407 187.303 45.1837 187.208 45.3744C187.172 45.4578 187.113 45.4936 187.054 45.4936H186.875C186.78 45.4936 186.745 45.4578 186.745 45.3744C186.745 45.279 186.78 45.1718 186.852 45.0407C186.923 44.9096 187.006 44.7904 187.089 44.7069C187.267 44.5401 187.457 44.4209 187.683 44.3375C187.897 44.254 188.17 44.2183 188.479 44.2183ZM154.943 44.2183C156.108 44.2183 156.702 44.7189 156.702 45.72V47.6985C156.702 48.3183 156.559 48.7593 156.262 49.0334C155.977 49.3075 155.502 49.4506 154.86 49.4506H154.777C154.148 49.4506 153.684 49.3314 153.411 49.093C153.126 48.8546 152.995 48.4732 152.995 47.9369C152.995 47.4006 153.15 46.9953 153.47 46.745C153.779 46.4828 154.29 46.3636 154.967 46.3636C155.157 46.3636 155.359 46.3636 155.585 46.3994C155.811 46.4351 156.024 46.4471 156.226 46.4828V45.7081C156.226 45.3505 156.12 45.0764 155.918 44.9096C155.716 44.7427 155.395 44.6473 154.967 44.6473C154.73 44.6473 154.528 44.6712 154.373 44.7069C154.219 44.7427 154.088 44.8261 153.981 44.9334C153.874 45.0407 153.767 45.1837 153.672 45.3744C153.637 45.4578 153.577 45.4936 153.518 45.4936H153.34C153.245 45.4936 153.209 45.4578 153.209 45.3744C153.209 45.279 153.245 45.1718 153.316 45.0407C153.387 44.9096 153.47 44.7904 153.554 44.7069C153.732 44.5401 153.922 44.4209 154.148 44.3375C154.361 44.254 154.635 44.2183 154.943 44.2183ZM117.345 44.2183C118.509 44.2183 119.103 44.7189 119.103 45.72V47.6985C119.103 48.3183 118.961 48.7593 118.664 49.0334C118.379 49.3075 117.903 49.4506 117.262 49.4506H117.179C116.549 49.4506 116.086 49.3314 115.813 49.093C115.527 48.8546 115.397 48.4732 115.397 47.9369C115.397 47.4006 115.551 46.9953 115.872 46.745C116.193 46.4828 116.692 46.3636 117.369 46.3636C117.559 46.3636 117.761 46.3636 117.987 46.3994C118.212 46.4351 118.426 46.4471 118.628 46.4828V45.7081C118.628 45.3505 118.521 45.0764 118.319 44.9096C118.117 44.7427 117.796 44.6473 117.369 44.6473C117.131 44.6473 116.929 44.6712 116.775 44.7069C116.62 44.7427 116.49 44.8261 116.383 44.9334C116.276 45.0407 116.169 45.1837 116.074 45.3744C116.038 45.4578 115.979 45.4936 115.92 45.4936H115.741C115.646 45.4936 115.611 45.4578 115.611 45.3744C115.611 45.279 115.646 45.1718 115.718 45.0407C115.789 44.9096 115.872 44.7904 115.955 44.7069C116.133 44.5401 116.323 44.4209 116.549 44.3375C116.763 44.254 117.036 44.2183 117.345 44.2183ZM133.002 42.4305C133.085 42.4305 133.145 42.4662 133.18 42.5377L135.247 46.757L137.326 42.5377C137.362 42.4662 137.421 42.4305 137.504 42.4305H137.754C137.849 42.4305 137.885 42.4781 137.885 42.5616V49.2122C137.885 49.3075 137.837 49.3433 137.754 49.3433H137.576C137.481 49.3433 137.445 49.2956 137.445 49.2122V43.229L135.509 47.1503C135.473 47.2218 135.414 47.2575 135.319 47.2575H135.14C135.045 47.2575 134.986 47.2218 134.962 47.1503L133.038 43.229V49.2122C133.038 49.3075 132.99 49.3433 132.907 49.3433H132.729C132.634 49.3433 132.598 49.2956 132.598 49.2122V42.5616C132.598 42.4662 132.646 42.4305 132.729 42.4305H133.002ZM85.9952 42.4305C86.0784 42.4305 86.1259 42.4781 86.1496 42.5497L88.4067 49.1645C88.4067 49.1645 88.4305 49.248 88.4305 49.2718C88.4305 49.3195 88.3949 49.3552 88.3236 49.3552H88.0622C87.991 49.3552 87.9434 49.3195 87.9197 49.236L87.2663 47.3171H84.3796L83.7381 49.236C83.7144 49.3195 83.6668 49.3552 83.5956 49.3552H83.358C83.2867 49.3552 83.2511 49.3314 83.2511 49.2718C83.2511 49.248 83.2511 49.2122 83.2748 49.1645L85.52 42.5497C85.5438 42.4662 85.5913 42.4305 85.6626 42.4305H85.9952ZM100.761 44.2183C101.296 44.2183 101.712 44.3732 101.997 44.6712C102.282 44.9692 102.424 45.3982 102.424 45.9703V49.2122C102.424 49.3075 102.377 49.3433 102.294 49.3433H102.092C101.997 49.3433 101.961 49.2956 101.961 49.2122V46.0418C101.961 45.1122 101.545 44.6473 100.726 44.6473C100.239 44.6473 99.8704 44.7904 99.5972 45.0764C99.3239 45.3625 99.2051 45.7677 99.2051 46.2921V49.2122C99.2051 49.3075 99.1576 49.3433 99.0745 49.3433H98.8369C98.7418 49.3433 98.7062 49.2956 98.7062 49.2122V44.4924C98.7062 44.3971 98.7537 44.3613 98.8369 44.3613H99.027C99.122 44.3613 99.1576 44.409 99.1576 44.4924V45.0645C99.2764 44.8023 99.4784 44.5878 99.7635 44.4447C100.06 44.3017 100.381 44.2183 100.761 44.2183ZM177.669 44.2183C178.191 44.2183 178.595 44.3732 178.869 44.6712C179.142 44.9692 179.284 45.3982 179.284 45.9703V49.2122C179.284 49.3075 179.237 49.3433 179.154 49.3433H178.952C178.857 49.3433 178.821 49.2956 178.821 49.2122V46.0418C178.821 45.1122 178.429 44.6473 177.645 44.6473C177.17 44.6473 176.813 44.7904 176.552 45.0764C176.291 45.3625 176.16 45.7677 176.16 46.2921V49.2122C176.16 49.3075 176.113 49.3433 176.029 49.3433H175.827C175.732 49.3433 175.697 49.2956 175.697 49.2122V46.0418C175.697 45.1122 175.305 44.6473 174.521 44.6473C174.046 44.6473 173.689 44.7904 173.428 45.0764C173.166 45.3625 173.036 45.7677 173.036 46.2921V49.2122C173.036 49.3075 172.988 49.3433 172.905 49.3433H172.703C172.608 49.3433 172.573 49.2956 172.573 49.2122V44.4924C172.573 44.3971 172.62 44.3613 172.703 44.3613H172.893C172.988 44.3613 173.024 44.409 173.024 44.4924V45.0645C173.143 44.8023 173.333 44.5878 173.606 44.4447C173.879 44.3017 174.2 44.2183 174.568 44.2183C175.329 44.2183 175.827 44.5401 176.053 45.1718C176.184 44.8738 176.398 44.6354 176.683 44.4686C176.944 44.3136 177.277 44.2183 177.669 44.2183ZM151.249 44.3613C151.332 44.3613 151.38 44.409 151.38 44.4924V49.2122C151.38 49.3075 151.332 49.3433 151.249 49.3433H151.047C150.952 49.3433 150.916 49.2956 150.916 49.2122V44.4924C150.916 44.3971 150.964 44.3613 151.047 44.3613H151.249ZM194.051 44.2183C194.585 44.2183 195.001 44.3732 195.286 44.6712C195.571 44.9692 195.714 45.3982 195.714 45.9703V49.2122C195.714 49.3075 195.666 49.3433 195.583 49.3433H195.381C195.286 49.3433 195.25 49.2956 195.25 49.2122V46.0418C195.25 45.1122 194.835 44.6473 194.015 44.6473C193.528 44.6473 193.16 44.7904 192.886 45.0764C192.613 45.3625 192.494 45.7677 192.494 46.2921V49.2122C192.494 49.3075 192.447 49.3433 192.364 49.3433H192.162C192.067 49.3433 192.031 49.2956 192.031 49.2122V44.4924C192.031 44.3971 192.079 44.3613 192.162 44.3613H192.352C192.447 44.3613 192.482 44.409 192.482 44.4924V45.0645C192.601 44.8023 192.803 44.5878 193.088 44.4447C193.35 44.3017 193.67 44.2183 194.051 44.2183ZM121.206 44.3494C121.289 44.3494 121.337 44.409 121.337 44.4924V45.3148C121.645 44.6831 122.168 44.3613 122.893 44.3613H123.047C123.142 44.3613 123.178 44.409 123.178 44.4924V44.6831C123.178 44.7785 123.13 44.8142 123.047 44.8142H122.869C122.382 44.8142 122.002 44.9811 121.74 45.3148C121.479 45.6485 121.348 46.1491 121.348 46.7927V49.2003C121.348 49.2956 121.301 49.3314 121.218 49.3314H121.016C120.921 49.3314 120.885 49.2837 120.885 49.2003V44.4805C120.885 44.3851 120.933 44.3494 121.016 44.3494H121.206ZM168.819 44.6235C167.821 44.6235 167.322 45.2194 167.322 46.4232V47.2814C167.322 48.4852 167.821 49.0811 168.819 49.0811C169.816 49.0811 170.315 48.4852 170.315 47.2814V46.4232C170.315 45.2194 169.816 44.6235 168.819 44.6235ZM147.055 44.6473C146.07 44.6473 145.559 45.2552 145.559 46.4471V47.2814C145.559 48.4852 146.058 49.0811 147.055 49.0811C148.053 49.0811 148.564 48.4852 148.564 47.2814V46.4471C148.564 45.2433 148.065 44.6473 147.055 44.6473ZM94.6197 42.7046C93.9901 42.7046 93.5387 42.8834 93.2535 43.2529C92.9684 43.6223 92.8259 44.2064 92.8259 44.993V46.7808C92.8259 47.5674 92.9684 48.1514 93.2535 48.5209C93.5387 48.8904 94.002 49.0692 94.6197 49.0692C95.2374 49.0692 95.7007 48.8904 95.9977 48.5209C96.2828 48.1514 96.4372 47.5674 96.4372 46.7808V44.993C96.4372 44.2064 96.2947 43.6223 95.9977 43.2529C95.7007 42.8953 95.2374 42.7046 94.6197 42.7046ZM183.086 44.6354C182.076 44.6354 181.577 45.2314 181.577 46.4351V47.2695C181.577 48.4732 182.076 49.0692 183.086 49.0692C184.084 49.0692 184.583 48.4613 184.583 47.2695V46.4351C184.583 45.2314 184.084 44.6354 183.086 44.6354ZM154.932 46.7808C154.409 46.7808 154.041 46.8761 153.815 47.0549C153.589 47.2337 153.47 47.5197 153.47 47.9369C153.47 48.3302 153.577 48.6163 153.779 48.795C153.981 48.9738 154.314 49.0573 154.777 49.0573H154.86C155.359 49.0573 155.716 48.9619 155.929 48.7593C156.143 48.5567 156.238 48.2229 156.238 47.7462V46.9119C156.001 46.8761 155.763 46.8404 155.537 46.8285C155.3 46.7927 155.11 46.7808 154.932 46.7808ZM188.455 46.7808C187.933 46.7808 187.564 46.8761 187.339 47.0549C187.113 47.2337 186.994 47.5197 186.994 47.9369C186.994 48.3302 187.101 48.6163 187.303 48.795C187.505 48.9738 187.838 49.0573 188.301 49.0573H188.384C188.883 49.0573 189.239 48.9619 189.453 48.7593C189.655 48.5567 189.762 48.2229 189.762 47.7462V46.9119C189.524 46.8761 189.287 46.8404 189.061 46.8285C188.835 46.7927 188.634 46.7808 188.455 46.7808ZM117.333 46.7808C116.81 46.7808 116.442 46.8761 116.216 47.0549C115.991 47.2337 115.872 47.5197 115.872 47.9369C115.872 48.3302 115.979 48.6163 116.181 48.795C116.383 48.9738 116.715 49.0573 117.179 49.0573H117.262C117.761 49.0573 118.117 48.9619 118.331 48.7593C118.545 48.5567 118.64 48.2229 118.64 47.7462V46.9119C118.402 46.8761 118.165 46.8404 117.939 46.8285C117.713 46.7927 117.511 46.7808 117.333 46.7808ZM85.817 43.0741L84.534 46.9H87.1238L85.817 43.0741ZM141.65 44.6235C140.641 44.6235 140.142 45.2552 140.142 46.5186V46.5782H143.076V46.3875C143.076 45.2075 142.601 44.6235 141.65 44.6235ZM126.385 44.6235C125.376 44.6235 124.877 45.2552 124.877 46.5186V46.5782H127.811V46.3875C127.811 45.2075 127.336 44.6235 126.385 44.6235ZM106.083 44.6235C105.074 44.6235 104.575 45.2552 104.575 46.5186V46.5782H107.509V46.3875C107.509 45.2075 107.034 44.6235 106.083 44.6235ZM151.154 42.5616C151.261 42.5616 151.344 42.5854 151.415 42.645C151.487 42.7046 151.522 42.7761 151.522 42.8715V42.9907C151.522 43.086 151.487 43.1575 151.415 43.2171C151.344 43.2648 151.261 43.3005 151.154 43.3005C151.047 43.3005 150.964 43.2767 150.893 43.2171C150.821 43.1575 150.786 43.086 150.786 42.9907V42.8715C150.786 42.7761 150.821 42.7046 150.893 42.645C150.964 42.5854 151.047 42.5616 151.154 42.5616Z" fill="white"/>
</svg>
